<svg width="429" height="92.31025614761522" viewBox="0 0 370 79.61490623453994" class="css-1j8o68f"><defs id="SvgjsDefs3157"></defs><g id="SvgjsG3158" featurekey="hmhgWD-0" transform="matrix(0.7266271554280943,0,0,0.7266271554280943,-11.76311833879834,11.10123316287487)" fill="#ffffff"><g xmlns="http://www.w3.org/2000/svg"><path d="M51.255,94.29c-8.735,0-17.658-1.789-23.674-5.34c-0.61-0.361-0.813-1.149-0.452-1.759c0.361-0.61,1.147-0.811,1.759-0.453   c10.915,6.451,32.963,6.655,42.891,0.401c0.605-0.379,1.396-0.198,1.771,0.401c0.379,0.601,0.198,1.393-0.401,1.771   C67.867,92.637,59.648,94.29,51.255,94.29z"></path></g><g xmlns="http://www.w3.org/2000/svg"><path d="M72.783,89.128c-0.117,0-0.235-0.015-0.351-0.049c-0.682-0.193-1.079-0.903-0.885-1.584   c1.801-6.372,2.533-9.015,3.388-12.106c0.91-3.292,1.962-7.096,4.598-16.451c0.193-0.681,0.905-1.077,1.584-0.887   c0.682,0.193,1.08,0.901,0.887,1.584c-2.635,9.347-3.685,13.148-4.595,16.44c-0.856,3.096-1.587,5.742-3.394,12.121   C73.858,88.759,73.342,89.128,72.783,89.128z"></path></g><g xmlns="http://www.w3.org/2000/svg"><path d="M28.234,89.128c-0.561,0-1.076-0.37-1.235-0.936c-1.382-4.92-7.221-27.862-7.158-30.144   c0.019-0.71,0.587-1.275,1.319-1.249c0.707,0.021,1.266,0.609,1.248,1.315c0.006,1.807,5.226,22.833,7.064,29.382   c0.191,0.683-0.207,1.392-0.889,1.583C28.466,89.113,28.348,89.128,28.234,89.128z"></path></g><g xmlns="http://www.w3.org/2000/svg"><g><path d="M80.77,60.568c-0.469,0-0.922-0.258-1.148-0.706c-0.32-0.633-0.065-1.405,0.568-1.724c1.201-0.606,1.899-1.33,2.138-2.217    c0.53-1.964-1.171-4.579-2.297-6.309l-0.081-0.125c-0.99-1.524-2.587-2.532-5.027-3.175c-3.376-0.886-6.8-1.143-9.998-1.287    c-2.167-0.099-4.387-0.081-6.534-0.064c-2.185,0.017-4.445,0.033-6.682-0.068c-1.262-0.058-2.526-0.062-3.786-0.067    c-1.561-0.006-3.178-0.013-4.78-0.121c-13.991-1.17-16.819-2.861-17.792-4.513c-0.044-0.071-0.122-0.173-0.22-0.306    c-0.828-1.121-3.029-4.097-2.258-7.877c0.647-3.183,3.229-6.125,7.672-8.744c0.015-0.013,7.435-4.969,10.052-7.941    c0.469-0.532,1.28-0.585,1.812-0.116c0.533,0.469,0.584,1.28,0.116,1.812c-2.839,3.225-10.299,8.21-10.616,8.42    c-3.849,2.271-6.022,4.64-6.519,7.081c-0.541,2.66,1.045,4.807,1.808,5.838c0.168,0.229,0.295,0.407,0.367,0.528    c0.361,0.614,2.622,2.157,15.773,3.256c1.501,0.101,3.075,0.107,4.598,0.113c1.297,0.005,2.595,0.01,3.894,0.069    c2.166,0.099,4.391,0.082,6.544,0.065c2.181-0.017,4.437-0.033,6.669,0.067c3.18,0.144,6.919,0.419,10.536,1.369    c3.053,0.804,5.187,2.197,6.528,4.259l0.08,0.123c1.374,2.113,3.451,5.307,2.624,8.378c-0.434,1.609-1.599,2.9-3.462,3.84    C81.161,60.524,80.965,60.568,80.77,60.568z"></path></g><g><path d="M21.122,59.367c-0.218,0-0.44-0.056-0.643-0.175c-3.011-1.75-4.734-6.277-4.191-11.007c0.615-5.346,3.854-9.42,8.668-10.9    c0.678-0.205,1.396,0.173,1.605,0.851s-0.173,1.396-0.851,1.605c-5.489,1.685-6.634,6.671-6.87,8.737    c-0.424,3.689,0.808,7.262,2.929,8.496c0.614,0.356,0.822,1.143,0.465,1.755C21.995,59.138,21.565,59.367,21.122,59.367z"></path></g><g><path d="M77.999,47.246c-0.064,0-0.13-0.004-0.194-0.014c-0.701-0.101-1.179-0.783-1.079-1.486c0.125-0.86,0.663-1.37,1.019-1.708    c0.072-0.069,0.145-0.136,0.212-0.211c1.313-1.446,1.763-2.794,1.414-4.242c-0.466-1.937-1.388-3.501-2.818-4.781    c-1.025-0.918-2.175-1.42-3.18-1.383c-4.002,0.154-8.044-0.101-12.347-0.783c-4.184-0.664-8.431-1.724-12.624-3.155    c-2.438-0.831-4.983-1.822-6.939-3.957c-1.835-2-2.642-4.367-2.274-6.664c0.539-3.364,2.667-5.766,6.153-6.946    c0.447-0.152,0.901-0.286,1.357-0.422c1.12-0.333,2.176-0.647,3.082-1.207c0.556-0.398,1.638-2.771,1.581-3.473    c-0.056-0.693,0.446-1.338,1.138-1.412c0.701-0.074,1.315,0.384,1.409,1.075c0.22,1.624-1.415,5.154-2.776,5.995    c-1.197,0.74-2.469,1.118-3.7,1.484c-0.425,0.126-0.847,0.252-1.263,0.393c-2.564,0.868-4.057,2.523-4.441,4.92    c-0.241,1.506,0.338,3.112,1.632,4.523c1.547,1.688,3.75,2.537,5.874,3.263c4.053,1.382,8.157,2.407,12.198,3.048    c4.134,0.655,8.007,0.9,11.847,0.755c1.655-0.076,3.451,0.657,4.991,2.035c1.805,1.617,3.019,3.666,3.603,6.094    c0.552,2.285-0.125,4.496-2.007,6.57c-0.109,0.121-0.229,0.235-0.348,0.349c-0.091,0.087-0.231,0.218-0.263,0.272    C79.158,46.812,78.623,47.246,77.999,47.246z"></path></g><g><path d="M73.421,33.254c-0.171,0-0.345-0.035-0.512-0.108c-0.65-0.284-0.946-1.041-0.663-1.691    c0.514-1.177,0.878-2.161,0.978-3.135c0.145-1.382-0.127-2.518-0.831-3.474c-1.312-1.789-3.26-3.056-5.141-4.201    c-1.267-0.772-2.639-1.477-3.962-2.16c-0.687-0.353-1.374-0.707-2.053-1.072c-1.518-0.815-2.049-2.16-2.564-3.46    c-0.783-1.98-1.672-4.223-6.505-6.108c-0.661-0.258-0.987-1.001-0.729-1.663c0.258-0.66,1.003-0.985,1.663-0.729    c5.877,2.291,7.08,5.334,7.959,7.555c0.461,1.165,0.732,1.789,1.391,2.143c0.666,0.357,1.339,0.704,2.012,1.05    c1.365,0.702,2.777,1.429,4.123,2.25c2.101,1.279,4.285,2.708,5.874,4.873c1.085,1.473,1.528,3.243,1.316,5.262    c-0.143,1.38-0.652,2.689-1.18,3.898C74.388,32.965,73.917,33.254,73.421,33.254z"></path></g><g><ellipse cx="72.46" cy="50.694" rx="0.822" ry="0.768"></ellipse></g><g><ellipse cx="73.502" cy="56.057" rx="1.044" ry="0.975"></ellipse></g><g><ellipse cx="69.625" cy="52.904" rx="1.044" ry="0.975"></ellipse></g><g><ellipse cx="75.267" cy="52.245" rx="0.72" ry="0.673"></ellipse></g><g><ellipse cx="68.582" cy="57.031" rx="0.72" ry="0.673"></ellipse></g><g><ellipse cx="72.46" cy="46.964" rx="0.72" ry="0.673"></ellipse></g><g><ellipse cx="77.489" cy="49.926" rx="0.72" ry="0.673"></ellipse></g><g><ellipse cx="77.489" cy="55.082" rx="0.72" ry="0.673"></ellipse></g><g><ellipse fill="none" cx="66.936" cy="52.904" rx="0.705" ry="0.659"></ellipse></g><g><ellipse cx="67.407" cy="48.06" rx="1.175" ry="1.097"></ellipse></g><g><ellipse fill="none" cx="59.397" cy="24.371" rx="0.705" ry="0.659"></ellipse></g><g><ellipse cx="67.407" cy="39.83" rx="1.175" ry="1.097"></ellipse></g><g><ellipse cx="75.267" cy="38.513" rx="0.822" ry="0.768"></ellipse></g><g><ellipse cx="76.768" cy="41.65" rx="0.822" ry="0.768"></ellipse></g><g><ellipse cx="70.669" cy="39.83" rx="1.044" ry="0.975"></ellipse></g><g><ellipse cx="73.502" cy="40.977" rx="0.72" ry="0.673"></ellipse></g><g><ellipse cx="74.546" cy="34.988" rx="0.596" ry="0.557"></ellipse></g><g><ellipse cx="72.46" cy="36.429" rx="0.72" ry="0.673"></ellipse></g><g><ellipse cx="68.757" cy="36.429" rx="1.175" ry="1.097"></ellipse></g><g><path d="M31.196,56.112c-4.241,0-7.692-2.591-7.692-5.775c0-0.354,0.288-0.642,0.642-0.642c0.354,0,0.642,0.288,0.642,0.642    c0,2.477,2.875,4.491,6.408,4.491c0.354,0,0.642,0.288,0.642,0.642C31.838,55.825,31.55,56.112,31.196,56.112z"></path></g></g><g xmlns="http://www.w3.org/2000/svg"><g><path d="M24.757,60.959c-0.497,0-0.989-0.081-1.444-0.25c-1.085-0.404-1.753-1.26-1.831-2.347    c-0.026-0.353,0.24-0.661,0.593-0.687c0.348-0.032,0.661,0.241,0.687,0.594c0.042,0.589,0.379,1.005,0.999,1.236    c1.037,0.386,2.455,0.08,3.229-0.695c0.291-0.291,0.501-0.669,0.624-1.121c0.094-0.343,0.448-0.543,0.788-0.452    c0.342,0.092,0.543,0.446,0.451,0.787c-0.182,0.672-0.505,1.242-0.955,1.692C27.101,60.515,25.917,60.959,24.757,60.959z"></path></g><g><path d="M31.833,61.026c-0.25,0-0.496-0.019-0.733-0.054c-1.863-0.281-3.097-1.521-3.142-3.161c-0.009-0.353,0.27-0.65,0.624-0.66    c0.348,0.013,0.65,0.27,0.66,0.624c0.033,1.198,1.08,1.781,2.049,1.926c1.421,0.213,3.237-0.407,3.869-2.273    c0.114-0.338,0.479-0.514,0.814-0.402c0.336,0.114,0.516,0.478,0.402,0.814C35.613,60.09,33.615,61.026,31.833,61.026z"></path></g><g><path d="M38.962,61.299c-0.25,0-0.497-0.019-0.734-0.054c-1.863-0.281-3.096-1.521-3.141-3.16c-0.009-0.353,0.27-0.65,0.624-0.66    c0.333-0.017,0.65,0.27,0.66,0.624c0.033,1.198,1.08,1.78,2.048,1.925c1.416,0.213,3.237-0.403,3.869-2.271    c0.114-0.338,0.481-0.514,0.814-0.402c0.336,0.114,0.516,0.478,0.402,0.814C42.742,60.365,40.746,61.299,38.962,61.299z"></path></g><g><path d="M46.099,61.473c-0.25,0-0.497-0.018-0.734-0.054c-1.863-0.28-3.096-1.52-3.142-3.16c-0.009-0.353,0.27-0.65,0.624-0.66    c0.352-0.013,0.65,0.27,0.66,0.624c0.033,1.198,1.08,1.78,2.048,1.926c1.423,0.212,3.237-0.406,3.869-2.273    c0.114-0.338,0.478-0.511,0.814-0.402c0.336,0.114,0.516,0.478,0.402,0.814C49.877,60.538,47.881,61.473,46.099,61.473z"></path></g><g><path d="M53.958,61.604c-0.25,0-0.497-0.018-0.734-0.054c-1.863-0.28-3.096-1.52-3.142-3.16c-0.009-0.353,0.27-0.65,0.624-0.66    c0.348-0.004,0.65,0.27,0.66,0.624c0.033,1.198,1.08,1.78,2.048,1.926c1.421,0.212,3.237-0.406,3.869-2.273    c0.114-0.338,0.48-0.514,0.814-0.402c0.336,0.114,0.516,0.478,0.402,0.814C57.738,60.67,55.741,61.604,53.958,61.604z"></path></g><g><path d="M61.384,61.867c-0.25,0-0.497-0.018-0.734-0.054c-1.863-0.28-3.096-1.52-3.142-3.16c-0.009-0.353,0.27-0.65,0.624-0.66    c0.357,0.015,0.65,0.27,0.66,0.624c0.033,1.198,1.08,1.78,2.048,1.926c1.42,0.211,3.237-0.406,3.869-2.273    c0.113-0.336,0.479-0.512,0.814-0.402c0.336,0.114,0.516,0.478,0.402,0.814C65.164,60.933,63.166,61.867,61.384,61.867z"></path></g><g><path d="M68.554,61.617c-0.25,0-0.497-0.018-0.734-0.054c-1.862-0.281-3.094-1.521-3.139-3.16c-0.009-0.354,0.27-0.65,0.624-0.66    c0.006,0,0.013,0,0.018,0c0.348,0,0.632,0.276,0.642,0.624c0.032,1.198,1.079,1.78,2.047,1.926    c1.425,0.213,3.239-0.406,3.871-2.273c0.113-0.336,0.478-0.514,0.814-0.402c0.336,0.114,0.516,0.478,0.402,0.814    C72.334,60.682,70.337,61.617,68.554,61.617z"></path></g><g><path d="M76.091,61.581c-0.198,0-0.394-0.01-0.584-0.028c-2.088-0.207-3.562-1.392-3.671-2.948    c-0.024-0.353,0.241-0.661,0.596-0.686c0.344-0.036,0.661,0.241,0.686,0.596c0.073,1.05,1.316,1.641,2.517,1.76    c1.466,0.144,3.218-0.383,3.63-1.885c0.095-0.344,0.451-0.541,0.788-0.451c0.343,0.094,0.544,0.448,0.451,0.788    C79.952,60.733,77.933,61.581,76.091,61.581z"></path></g></g></g><g id="SvgjsG3159" featurekey="1RRcwp-0" transform="matrix(2.1767524109098466,0,0,2.1767524109098466,67.17022145063463,17.810187744452577)" fill="#ffffff"><path d="M6.08 20 l-4.78 0 l0 -14.24 l4.78 0 c4.02 0 7.3 3.2 7.3 7.12 s-3.28 7.12 -7.3 7.12 z M3.96 17.38 l2.12 0 c2.56 0 4.64 -2.02 4.64 -4.5 s-2.08 -4.5 -4.64 -4.5 l-2.12 0 l0 9 z M20.68 20.12 c-0.46 0 -0.94 -0.06 -1.44 -0.16 c-1.48 -0.3 -2.92 -1.02 -4.18 -2.12 l-0.38 -0.34 l1.76 -2 l0.38 0.34 c0.92 0.8 1.94 1.34 2.94 1.54 l0.02 0 c0.3 0.06 0.6 0.1 0.9 0.1 c0.5 0 0.96 -0.1 1.34 -0.28 c0.48 -0.2 1.04 -0.64 1.04 -1.46 c0 -0.44 -0.22 -0.78 -0.68 -1.06 c-0.56 -0.34 -1.32 -0.52 -1.86 -0.62 c-0.24 -0.04 -2.28 -0.46 -3.22 -0.98 c-0.62 -0.38 -1.1 -0.86 -1.44 -1.42 c-0.34 -0.58 -0.5 -1.22 -0.5 -1.92 c0 -0.76 0.24 -1.52 0.7 -2.22 c0.44 -0.58 1.04 -1.06 1.76 -1.4 s1.52 -0.52 2.38 -0.52 c0.34 0 0.7 0.04 1.06 0.08 c1.32 0.24 2.62 0.84 3.76 1.8 l0.38 0.32 l-1.7 2.06 l-0.38 -0.32 c-1.3 -1.06 -2.42 -1.3 -3.14 -1.3 c-0.46 0 -0.88 0.1 -1.24 0.26 c-0.56 0.26 -0.92 0.74 -0.92 1.22 c0 0.44 0.16 0.72 0.54 0.98 s0.96 0.46 1.88 0.66 c0.12 0.02 0.28 0.06 0.44 0.1 c0.84 0.16 1.96 0.4 2.74 0.86 c0.68 0.36 1.2 0.86 1.56 1.44 s0.54 1.26 0.54 1.98 c0 0.9 -0.24 1.7 -0.72 2.38 c-0.42 0.58 -1.04 1.08 -1.86 1.48 c-0.7 0.36 -1.48 0.52 -2.46 0.52 z M31.040000000000003 20 l-2.68 0 l0 -14.24 l2.68 0 l0 14.24 z M41.260000000000005 20 l-2.52 0 l0 -9.16 l2.52 0 l0 0.74 c0.72 -0.72 1.8 -0.96 2.52 -0.96 l0.6 0 l-0.6 2.5 l-0.38 0 c-1.18 0 -2.14 0.92 -2.14 2.02 l0 4.86 z M49.38 20.22 l-0.02 0 c-0.58 0 -1.18 -0.14 -1.74 -0.4 c-0.52 -0.22 -1 -0.58 -1.44 -1.04 c-0.7 -0.76 -1.12 -1.76 -1.22 -2.8 c-0.02 -0.18 -0.04 -0.36 -0.04 -0.56 c0 -0.4 0.06 -0.82 0.16 -1.24 c0.18 -0.8 0.56 -1.54 1.1 -2.1 c0.4 -0.44 0.86 -0.78 1.44 -1.06 c0.54 -0.26 1.14 -0.38 1.76 -0.38 c0.64 0 1.22 0.12 1.76 0.38 c0.6 0.28 1.08 0.64 1.44 1.06 c0.52 0.56 0.92 1.28 1.12 2.1 c0.1 0.38 0.14 0.78 0.14 1.24 l0 0.46 l-6.72 0 l0.02 0.14 c0.26 1.24 1.2 2.14 2.24 2.14 l0.02 0 c0.58 -0.04 1.22 -0.4 1.6 -0.72 l0.22 -0.18 l1.66 1.44 l-0.3 0.26 c-0.22 0.2 -0.5 0.44 -0.8 0.6 l-0.02 0 c-0.72 0.42 -1.5 0.64 -2.38 0.66 z M49.38 12.719999999999999 c-0.78 0 -1.56 0.54 -1.98 1.38 l-0.08 0.16 l4.14 0 l-0.08 -0.16 c-0.46 -0.86 -1.22 -1.38 -2 -1.38 z M58.74 20.08 c-0.28 0 -0.58 -0.04 -0.94 -0.1 c-1 -0.2 -1.94 -0.64 -2.68 -1.3 l-0.3 -0.24 l1.5 -1.66 l0.28 0.26 c0.88 0.74 1.6 0.88 2.06 0.88 c0.34 0 0.58 -0.04 0.82 -0.16 c0.3 -0.12 0.44 -0.32 0.44 -0.6 c0 -0.24 -0.14 -0.54 -1.32 -0.74 c-1.08 -0.22 -1.76 -0.44 -2.08 -0.62 c-0.42 -0.24 -0.76 -0.56 -1 -0.96 s-0.36 -0.84 -0.36 -1.34 c0 -0.52 0.16 -1.02 0.48 -1.48 c0.26 -0.38 0.64 -0.68 1.2 -0.96 c0.46 -0.22 0.98 -0.32 1.6 -0.32 c0.22 0 0.44 0.02 0.64 0.04 c0.88 0.14 1.76 0.52 2.48 1.08 l0.3 0.24 l-1.42 1.64 l-0.28 -0.22 c-0.7 -0.56 -1.3 -0.66 -1.66 -0.66 c-0.26 0 -0.5 0.04 -0.72 0.14 c-0.26 0.14 -0.4 0.36 -0.4 0.5 c0 0.28 0.2 0.48 1.24 0.72 c1.36 0.32 1.8 0.48 2.08 0.6 c0.56 0.32 0.8 0.58 1 0.84 c0.3 0.42 0.44 0.94 0.44 1.5 c0 0.58 -0.16 1.1 -0.46 1.52 s-0.7 0.78 -1.28 1.06 c-0.46 0.22 -1.06 0.34 -1.66 0.34 z M70.2 20 l-2.4 0 c-0.88 0 -1.7 -0.34 -2.3 -0.94 c-0.62 -0.62 -0.94 -1.42 -0.94 -2.3 l0 -3.8 l-1.28 0 l0 -2.06 l1.28 0 l0 -3.6 l2.38 0 l0 3.6 l2.66 0 l0 2.06 l-2.66 0 l0 3.76 c0 0.5 0.44 0.96 0.88 0.96 l1.74 0 z M75.67999999999999 20.18 c-1.26 0 -2.46 -0.48 -3.38 -1.38 c-0.9 -0.92 -1.4 -2.12 -1.4 -3.38 s0.5 -2.46 1.4 -3.38 c0.9 -0.9 2.1 -1.38 3.38 -1.38 c0.84 0 1.6 0.3 2.26 0.9 l0.1 0.08 l0 -0.8 l2.42 0 l0 9.16 l-2.42 0 l0 -0.72 l-0.1 0.1 c-0.72 0.7 -1.54 0.8 -2.26 0.8 z M75.67999999999999 13 c-1.28 0 -2.36 1.12 -2.36 2.42 c0 1.32 1.08 2.42 2.36 2.42 s2.36 -1.1 2.36 -2.42 c0 -1.3 -1.08 -2.42 -2.36 -2.42 z M87.19999999999999 20.22 c-1.16 0 -2.24 -0.42 -3.02 -1.2 c-0.82 -0.78 -1.26 -1.84 -1.26 -2.98 l0 -5.2 l2.52 0 l0 5.2 c0 0.94 0.78 1.7 1.76 1.7 s1.78 -0.76 1.78 -1.7 l0 -5.2 l2.52 0 l0 5.2 c0 1.12 -0.46 2.18 -1.28 2.98 c-0.8 0.78 -1.86 1.2 -3.02 1.2 z M96.47999999999998 20 l-2.52 0 l0 -9.16 l2.52 0 l0 0.74 c0.72 -0.72 1.8 -0.96 2.52 -0.96 l0.6 0 l-0.6 2.5 l-0.38 0 c-1.18 0 -2.14 0.92 -2.14 2.02 l0 4.86 z M105.01999999999998 20.18 c-1.26 0 -2.46 -0.48 -3.38 -1.38 c-0.9 -0.92 -1.4 -2.12 -1.4 -3.38 s0.5 -2.46 1.4 -3.38 c0.9 -0.9 2.1 -1.38 3.38 -1.38 c0.84 0 1.6 0.3 2.26 0.9 l0.1 0.08 l0 -0.8 l2.42 0 l0 9.16 l-2.42 0 l0 -0.72 l-0.1 0.1 c-0.72 0.7 -1.54 0.8 -2.26 0.8 z M105.01999999999998 13 c-1.28 0 -2.36 1.12 -2.36 2.42 c0 1.32 1.08 2.42 2.36 2.42 s2.36 -1.1 2.36 -2.42 c0 -1.3 -1.08 -2.42 -2.36 -2.42 z M121.17999999999998 20 l-2.52 0 l0 -4.9 c0 -1.08 -0.86 -1.92 -1.94 -1.92 c-1.04 0 -1.94 0.86 -1.94 1.92 l0 4.9 l-2.5 0 l0 -9.16 l2.5 0 l0 0.66 c0.62 -0.62 1.28 -0.84 1.94 -0.84 c1.2 0 2.32 0.46 3.16 1.28 c0.84 0.86 1.3 1.98 1.3 3.16 l0 4.9 z M129.43999999999997 20 l-2.4 0 c-0.88 0 -1.7 -0.34 -2.3 -0.94 c-0.62 -0.62 -0.94 -1.42 -0.94 -2.3 l0 -3.8 l-1.28 0 l0 -2.06 l1.28 0 l0 -3.6 l2.38 0 l0 3.6 l2.66 0 l0 2.06 l-2.66 0 l0 3.76 c0 0.5 0.44 0.96 0.88 0.96 l1.74 0 z M134.65999999999997 20.22 l-0.02 0 c-0.58 0 -1.18 -0.14 -1.74 -0.4 c-0.52 -0.22 -1 -0.58 -1.44 -1.04 c-0.7 -0.76 -1.12 -1.76 -1.22 -2.8 c-0.02 -0.18 -0.04 -0.36 -0.04 -0.56 c0 -0.4 0.06 -0.82 0.16 -1.24 c0.18 -0.8 0.56 -1.54 1.1 -2.1 c0.4 -0.44 0.86 -0.78 1.44 -1.06 c0.54 -0.26 1.14 -0.38 1.76 -0.38 c0.64 0 1.22 0.12 1.76 0.38 c0.6 0.28 1.08 0.64 1.44 1.06 c0.52 0.56 0.92 1.28 1.12 2.1 c0.1 0.38 0.14 0.78 0.14 1.24 l0 0.46 l-6.72 0 l0.02 0.14 c0.26 1.24 1.2 2.14 2.24 2.14 l0.02 0 c0.58 -0.04 1.22 -0.4 1.6 -0.72 l0.22 -0.18 l1.66 1.44 l-0.3 0.26 c-0.22 0.2 -0.5 0.44 -0.8 0.6 l-0.02 0 c-0.72 0.42 -1.5 0.64 -2.38 0.66 z M134.65999999999997 12.719999999999999 c-0.78 0 -1.56 0.54 -1.98 1.38 l-0.08 0.16 l4.14 0 l-0.08 -0.16 c-0.46 -0.86 -1.22 -1.38 -2 -1.38 z"></path></g></svg>